<svg xmlns="http://www.w3.org/2000/svg" width="1024" height="1024" viewBox="0 0 1024 1024">
  <defs>
    <linearGradient id="surface" x1="0" y1="0" x2="1" y2="1">
      <stop offset="0" stop-color="#172329"/>
      <stop offset="1" stop-color="#090d10"/>
    </linearGradient>
    <filter id="shadow" x="-20%" y="-20%" width="140%" height="140%">
      <feDropShadow dx="0" dy="28" stdDeviation="30" flood-color="#000" flood-opacity=".32"/>
    </filter>
  </defs>
  <rect x="64" y="64" width="896" height="896" rx="210" fill="url(#surface)"/>
  <g filter="url(#shadow)">
    <path d="M246 290h536c34 0 62 28 62 62v370c0 34-28 62-62 62H246c-34 0-62-28-62-62V352c0-34 28-62 62-62Z" fill="#f2f5f2"/>
    <path d="M184 352c0-34 28-62 62-62h536c34 0 62 28 62 62v94H184Z" fill="#ff6f61"/>
    <path d="m238 289 82 157h103l-82-157Zm206 0 82 157h103l-82-157Zm206 0 82 157h103l-82-157Z" fill="#11191e"/>
    <path d="M343 568h338v74H343Z" fill="#11191e"/>
    <path d="M343 674h224v54H343Z" fill="#49d2c8"/>
  </g>
</svg>
